<svg width="36" height="33" viewBox="0 0 36 33" fill="none" xmlns="http://www.w3.org/2000/svg">
<path d="M31.5448 20.5H13.2232L13.6323 22.5H30.4084C31.371 22.5 32.0844 23.3938 31.8711 24.3324L31.5263 25.8497C32.6945 26.4167 33.5 27.6142 33.5 29C33.5 30.9501 31.9051 32.5277 29.9485 32.4996C28.0846 32.4728 26.5516 30.9602 26.5013 29.0967C26.4738 28.0787 26.8816 27.1561 27.5515 26.4999H14.4485C15.0971 27.1353 15.5 28.0204 15.5 29C15.5 30.9883 13.842 32.5894 11.8331 32.4961C10.0494 32.4133 8.59869 30.9721 8.50494 29.1888C8.43256 27.8117 9.15719 26.5979 10.2581 25.9647L5.86769 4.5H1.5C0.671562 4.5 0 3.82844 0 3V2C0 1.17156 0.671562 0.5 1.5 0.5H7.90806C8.62062 0.5 9.23481 1.00131 9.37762 1.69937L9.9505 4.5H34.4994C35.4619 4.5 36.1754 5.39381 35.9621 6.33244L33.0075 19.3324C32.8523 20.0154 32.2452 20.5 31.5448 20.5ZM25.5 11H22.5V8.5C22.5 7.94769 22.0523 7.5 21.5 7.5H20.5C19.9477 7.5 19.5 7.94769 19.5 8.5V11H16.5C15.9477 11 15.5 11.4477 15.5 12V13C15.5 13.5523 15.9477 14 16.5 14H19.5V16.5C19.5 17.0523 19.9477 17.5 20.5 17.5H21.5C22.0523 17.5 22.5 17.0523 22.5 16.5V14H25.5C26.0523 14 26.5 13.5523 26.5 13V12C26.5 11.4477 26.0523 11 25.5 11Z" fill="#4900E4"/>
</svg>
