<svg width="41" height="41" viewBox="0 0 41 41" fill="none" xmlns="http://www.w3.org/2000/svg">
<path d="M26.5703 22.2076C27.8511 22.2076 28.9781 21.5075 29.5587 20.4488L35.6721 9.36612C36.3039 8.23907 35.4842 6.83879 34.1864 6.83879H8.91321L7.30802 3.42349H1.724V6.83879H5.1393L11.2868 19.7999L8.98151 23.9665C7.73493 26.2548 9.37427 29.0382 11.9699 29.0382H32.4617V25.6229H11.9699L13.8483 22.2076H26.5703ZM10.5355 10.2541H31.2834L26.5703 18.7923H14.5826L10.5355 10.2541ZM11.9699 30.7459C10.0915 30.7459 8.57168 32.2828 8.57168 34.1612C8.57168 36.0396 10.0915 37.5765 11.9699 37.5765C13.8483 37.5765 15.3852 36.0396 15.3852 34.1612C15.3852 32.2828 13.8483 30.7459 11.9699 30.7459ZM29.0464 30.7459C27.168 30.7459 25.6482 32.2828 25.6482 34.1612C25.6482 36.0396 27.168 37.5765 29.0464 37.5765C30.9248 37.5765 32.4617 36.0396 32.4617 34.1612C32.4617 32.2828 30.9248 30.7459 29.0464 30.7459Z" fill="black"/>
</svg>
