<svg width="44" height="51" viewBox="0 0 44 51" fill="none" xmlns="http://www.w3.org/2000/svg">
<path d="M26.9376 31.4114C28.2184 31.4114 29.3454 30.7112 29.926 29.6525L36.0394 18.5699C36.6712 17.4428 35.8516 16.0425 34.5537 16.0425H9.28052L7.67533 12.6272H2.09131V16.0425H5.50661L11.6542 29.0036L9.34882 33.1703C8.10224 35.4585 9.74158 38.242 12.3372 38.242H32.829V34.8267H12.3372L14.2156 31.4114H26.9376ZM10.9028 19.4578H31.6507L26.9376 27.9961H14.9499L10.9028 19.4578ZM12.3372 39.9496C10.4588 39.9496 8.93899 41.4865 8.93899 43.3649C8.93899 45.2434 10.4588 46.7802 12.3372 46.7802C14.2156 46.7802 15.7525 45.2434 15.7525 43.3649C15.7525 41.4865 14.2156 39.9496 12.3372 39.9496ZM29.4137 39.9496C27.5353 39.9496 26.0155 41.4865 26.0155 43.3649C26.0155 45.2434 27.5353 46.7802 29.4137 46.7802C31.2921 46.7802 32.829 45.2434 32.829 43.3649C32.829 41.4865 31.2921 39.9496 29.4137 39.9496Z" fill="black"/>
<circle cx="33.5" cy="11.3045" r="10.5" fill="#4900E4"/>
<path d="M29.45 7.6585C29.45 7.2385 29.582 6.8965 29.846 6.6325C30.122 6.3565 30.5 6.1525 30.98 6.0205C31.472 5.8765 32.048 5.8045 32.708 5.8045C33.656 5.8045 34.448 5.9545 35.084 6.2545C35.72 6.5425 36.2 6.9385 36.524 7.4425C36.848 7.9465 37.01 8.5165 37.01 9.1525C37.01 9.78851 36.83 10.4065 36.47 11.0065C36.122 11.5945 35.588 12.1765 34.868 12.7525L32.51 14.6425H36.83C36.902 14.7625 36.968 14.9305 37.028 15.1465C37.1 15.3505 37.136 15.5725 37.136 15.8125C37.136 16.2445 37.04 16.5565 36.848 16.7485C36.656 16.9285 36.404 17.0185 36.092 17.0185H29.846C29.582 16.8385 29.372 16.6045 29.216 16.3165C29.072 16.0285 29 15.6985 29 15.3265C29 14.9185 29.084 14.5765 29.252 14.3005C29.432 14.0125 29.618 13.7845 29.81 13.6165L32.294 11.4925C32.918 10.9645 33.344 10.5385 33.572 10.2145C33.8 9.8905 33.914 9.59651 33.914 9.33251C33.914 8.99651 33.776 8.7325 33.5 8.5405C33.236 8.3485 32.864 8.2525 32.384 8.2525C31.904 8.2525 31.472 8.3305 31.088 8.4865C30.716 8.6305 30.404 8.7865 30.152 8.9545C29.96 8.8105 29.792 8.63051 29.648 8.41451C29.516 8.1985 29.45 7.9465 29.45 7.6585Z" fill="white"/>
</svg>
