<?xml version="1.0" encoding="UTF-8" standalone="no"?>
<svg
   xmlns:dc="http://purl.org/dc/elements/1.1/"
   xmlns:cc="http://creativecommons.org/ns#"
   xmlns:rdf="http://www.w3.org/1999/02/22-rdf-syntax-ns#"
   xmlns:svg="http://www.w3.org/2000/svg"
   xmlns="http://www.w3.org/2000/svg"
   viewBox="0 0 853.33331 853.33331"
   height="40"
   width="40"
   xml:space="preserve"
   id="svg2"
   version="1.1"><metadata
     id="metadata8"><rdf:RDF><cc:Work
         rdf:about=""><dc:format>image/svg+xml</dc:format><dc:type
           rdf:resource="http://purl.org/dc/dcmitype/StillImage" /></cc:Work></rdf:RDF></metadata><defs
     id="defs6" /><g
     transform="matrix(1.3333333,0,0,-1.3333333,0,853.33333)"
     id="g10"><g
       transform="scale(0.1)"
       id="g12"><path
         id="path14"
         style="fill:#a2ce92;fill-opacity:1;fill-rule:nonzero;stroke:none"
         d="m 835.352,4195.11 c -5.418,0 -10.911,1.1 -16.153,3.4 -20.281,8.94 -29.511,32.64 -20.566,52.93 10.808,24.54 21.972,48.87 33.523,72.99 9.59,20.02 33.535,28.51 53.559,18.92 19.988,-9.55 28.457,-33.56 18.887,-53.52 -11.184,-23.42 -22.024,-47 -32.485,-70.75 -6.637,-15.03 -21.347,-23.97 -36.765,-23.97 z m -78.016,-199.34 c -4.34,0 -8.731,0.7 -13.078,2.2 -20.957,7.22 -32.09,30.05 -24.903,51.01 11.79,34.27 24.415,68.61 37.532,102.06 8.074,20.71 31.414,30.84 52.008,22.74 20.656,-8.05 30.839,-31.36 22.738,-52.01 -12.695,-32.41 -24.934,-65.71 -36.328,-98.9 -5.727,-16.65 -21.301,-27.1 -37.969,-27.1 z m -85.219,-309.45 c -2.73,0 -5.476,0.28 -8.25,0.86 -21.719,4.55 -35.625,25.82 -31.074,47.52 14.734,70.56 32.695,141.47 53.34,210.76 6.355,21.25 28.703,33.3 49.953,26.97 21.25,-6.33 33.316,-28.7 27,-49.92 -20.027,-67.15 -37.41,-135.86 -51.731,-204.26 -3.945,-18.91 -20.64,-31.93 -39.238,-31.93 z m -54.793,-531.54 c -22.168,0 -40.144,17.98 -40.144,40.15 0,145.11 11.961,290.74 35.562,432.86 3.637,21.91 24.262,36.65 46.184,33.04 21.844,-3.6 36.648,-24.3 33.008,-46.15 -22.864,-137.81 -34.461,-279.04 -34.461,-419.75 0,-22.17 -17.993,-40.15 -40.149,-40.15" /><path
         id="path16"
         style="fill:#a2ce92;fill-opacity:1;fill-rule:nonzero;stroke:none"
         d="M 3200,576.57 C 1753.78,576.57 577.18,1753.9 577.18,3203.9 h 80.293 c 0,-1420 1140.587,-2547.029 2542.527,-2547.029 699.26,0 1350.98,275.781 1835.19,780.599 l 57.94,-54.46 C 4593.66,862.281 3921.31,576.57 3200,576.57" /><path
         id="path18"
         style="fill:#a2ce92;fill-opacity:1;fill-rule:nonzero;stroke:none"
         d="M 4872.59,1497.35 5251.67,1626 5173.6,1233.37 Z" /><path
         id="path20"
         style="fill:#82427b;fill-opacity:1;fill-rule:nonzero;stroke:none"
         d="m 5747.74,2728.5 c -2.2,0 -4.39,0.16 -6.65,0.52 -21.84,3.64 -36.63,24.31 -33,46.19 22.84,137.68 34.45,278.9 34.45,419.72 0,22.16 17.98,40.15 40.15,40.15 22.16,0 40.13,-17.99 40.13,-40.15 0,-145.21 -11.93,-290.85 -35.53,-432.87 -3.28,-19.66 -20.29,-33.56 -39.55,-33.56 z m -72.3,-312.75 c -3.81,0 -7.66,0.53 -11.49,1.68 -21.26,6.32 -33.32,28.69 -27.01,49.94 20.02,67.14 37.41,135.83 51.72,204.26 4.55,21.69 25.96,35.57 47.5,31.05 21.71,-4.53 35.62,-25.81 31.07,-47.51 -14.74,-70.57 -32.7,-141.46 -53.33,-210.75 -5.21,-17.43 -21.18,-28.67 -38.46,-28.67 z m -69.71,-202.48 c -4.85,0 -9.79,0.9 -14.61,2.77 -20.64,8.08 -30.84,31.35 -22.79,52 12.91,33 25.16,66.27 36.37,98.94 7.2,20.96 30.08,32.1 51.03,24.91 20.97,-7.21 32.1,-30.05 24.91,-51.02 -11.6,-33.69 -24.22,-68.03 -37.5,-102.06 -6.2,-15.84 -21.35,-25.54 -37.41,-25.54 z m -68.96,-159.76 c -5.75,0 -11.56,1.23 -17.1,3.81 -20.05,9.47 -28.64,33.4 -19.18,53.45 9.35,19.88 18.5,39.88 27.39,60.04 8.93,20.27 32.62,29.47 52.93,20.54 20.27,-8.97 29.47,-32.67 20.51,-52.95 -9.15,-20.75 -18.56,-41.4 -28.22,-61.87 -6.85,-14.51 -21.28,-23.02 -36.33,-23.02" /><path
         id="path22"
         style="fill:#82427b;fill-opacity:1;fill-rule:nonzero;stroke:none"
         d="m 5822.82,3203.9 h -80.28 c 0,1390 -1140.59,2538.03 -2542.54,2538.03 -698.33,0 -1349.49,-279.63 -1833.51,-783.31 l -57.93,54.53 c 499.32,519.58 1171.04,809.64 1891.44,809.64 1446.22,0 2622.82,-1178.89 2622.82,-2618.89" /><path
         id="path24"
         style="fill:#82427b;fill-opacity:1;fill-rule:nonzero;stroke:none"
         d="m 1529,4894.09 -379.19,-128.27 78.47,392.57 z" /><path
         id="path26"
         style="fill:#948576;fill-opacity:1;fill-rule:nonzero;stroke:none"
         d="m 3038.79,4383.9 c -12.83,0 -21.87,-16.68 -22.95,-27.24 l -0.96,-13.17 c -1.15,-11.41 7.34,-23.94 18.97,-25.12 l 708.44,-73.48 c 10.94,0 19.98,7.67 21.1,18.55 l 0.9,8.43 c 0.56,5.67 -1.09,11.03 -4.66,15.42 -3.58,4.4 -8.68,15.48 -14.33,16.05 l -706.2,80.56 z m 703.5,-220.36 c -3.41,0 -6.83,0.16 -10.31,0.52 l -706.31,72.35 c -55.64,5.69 -96.31,55.61 -90.64,111.24 l 0.98,8.98 c 5.61,55.2 54.46,96.29 111.35,90.38 l 706.11,-72.23 c 26.99,-2.78 51.3,-15.84 68.41,-36.89 17.13,-21.03 25.04,-47.43 22.27,-74.41 l -0.89,-8.72 c -5.33,-52.02 -48.72,-91.22 -100.97,-91.22" /><path
         id="path28"
         style="fill:#948576;fill-opacity:1;fill-rule:nonzero;stroke:none"
         d="m 3025.43,4253.9 c -12.77,0 -21.89,-17.07 -22.97,-27.64 l -0.97,-13.34 c -1.15,-11.41 7.35,-24.06 19.01,-25.25 l 708.49,-73.5 c 10.7,0 19.93,7.83 21.02,18.44 l 0.9,8.47 c 0.56,5.65 -1.09,11.02 -4.66,15.41 -3.58,4.4 -8.65,15.8 -14.27,16.38 l -706.31,81.03 c -0.07,0 -0.15,0 -0.24,0 z m 703.56,-221.1 c -3.44,0 -6.95,0.17 -10.47,0.53 l -706.19,72.29 c -55.68,5.7 -96.38,55.62 -90.69,111.31 l 0.98,8.92 c 5.56,55.12 54.6,96.13 111.23,90.43 l 706.28,-72.34 c 26.92,-2.73 51.23,-15.84 68.38,-36.86 17.12,-21.02 25.03,-47.46 22.26,-74.43 l -0.9,-8.7 c -5.32,-51.99 -48.68,-91.15 -100.88,-91.15" /><path
         id="path30"
         style="fill:#82427b;fill-opacity:1;fill-rule:nonzero;stroke:none"
         d="m 3727.4,4333.93 -78.98,14.37 48.98,269.36 c -270.36,108.2 -474.79,66.04 -543.64,45.71 l 4.94,-232.51 -80.29,-1.73 -6.12,289.18 25.12,10.59 c 11.32,4.77 281.2,114.91 661.23,-49.8 l 29.22,-12.64 -60.46,-332.53" /><path
         id="path32"
         style="fill:#948576;fill-opacity:1;fill-rule:nonzero;stroke:none"
         d="m 3239.38,1594.18 c -441.82,-0.02 -706.42,94.46 -723.45,100.73 l -2.55,1.06 c -136.34,61.1 -221.41,187.15 -246.01,364.49 -15.34,110.71 -2.63,207.83 1.95,236.66 -84.97,384.8 16.62,705.5 27.08,736.79 35.78,153.49 23.53,270.3 -36.31,347.16 -74.1,95.14 -200.65,98.32 -201.94,98.32 l -20.61,0.35 -11.87,16.96 c -62.18,89.91 4.76,213.37 7.66,218.57 l 8.39,15.19 16.81,4.29 c 164.55,42.03 320.68,-14.8 451.55,-164.32 95.32,-108.92 143.34,-228.14 145.32,-233.16 52.23,-151.23 132.12,-174.73 143.39,-177.31 62.06,-4.03 106.86,11.34 137.05,46.47 65.84,76.66 49.09,236.37 36.44,295.23 -135.34,354.23 24.3,648.76 31.17,661.14 l 70.23,-38.88 c -1.48,-2.72 -148.73,-276.78 -25.4,-596.22 l 1.7,-5.54 c 2.24,-9.88 53.7,-243.28 -53.09,-367.87 -47.61,-55.54 -117.16,-80.53 -206.05,-74.28 l -2.76,0.29 c -5.55,0.77 -136.28,21.37 -207.92,229.03 v 0 c -0.05,-0.03 -45.3,111.47 -131.81,209.71 -105.91,120.26 -224.17,167.98 -352.08,142 -11.16,-26.34 -23.74,-69.99 -12.31,-103.16 49.68,-5.66 162.38,-29.22 238.8,-126.63 76.35,-97.28 93.63,-237.78 51.36,-417.55 l -1.1,-3.87 c -1.1,-3.22 -109.17,-325.92 -23.64,-702.75 l 1.82,-8.11 -1.51,-8.2 c -0.76,-3.97 -71.38,-399.94 195.1,-520.92 31.36,-10.95 659.95,-222.11 1588.89,27.79 22.46,22.89 101.37,113.1 109.68,257.69 9.35,162.79 -70.21,339.46 -236.44,525.19 -17.79,14.34 -92.58,80.26 -95.46,178.03 -2.23,75.09 37.55,147.34 118.24,214.74 3.26,2.77 334.23,284.37 349.26,588.13 5.84,118.41 -38.03,226.49 -130.43,321.21 -1.32,1.33 -164.26,158.43 -527.11,108.75 l -10.87,79.56 c 405.74,55.49 587.83,-124.44 595.38,-132.12 108.79,-111.55 160.29,-239.93 153.2,-381.64 -16.95,-338.92 -363.15,-633.08 -377.9,-645.43 -60.65,-50.69 -90.76,-101.23 -89.53,-150.27 1.72,-69.52 66.14,-118.86 66.8,-119.39 l 5.83,-5.3 c 183.39,-203.99 270.53,-401.9 259.06,-588.2 -12.44,-201.72 -137.63,-312.69 -142.94,-317.35 l -6.95,-6.02 -8.86,-2.39 c -358.12,-97.38 -671.06,-128.65 -925.26,-128.65" /><path
         id="path34"
         style="fill:#948576;fill-opacity:1;fill-rule:nonzero;stroke:none"
         d="m 3692.12,3426.54 c -43.57,-149.65 39.26,-287.64 80.62,-344.28 l 130.74,89.88 c 228.28,154.33 231.57,415.07 231.57,417.68 3.64,57.53 -6.88,98.53 -31.13,124.44 -30.19,32.17 -75.27,33.08 -80.32,33.08 l -6.69,0.21 -215,23.32 c -22.63,-118.88 -101.06,-321.92 -109.79,-344.33 z m 66.65,-451.36 -23.6,25.61 c -7.82,8.5 -190.67,210.66 -119.55,450.17 l 1.1,3.22 c 29.06,74.25 105.66,284.28 110.79,363.37 l 2.71,49.98 292.91,-23.63 h 0.47 c 19.71,0 88.01,-12.34 138.9,-66.64 39.82,-42.5 57.63,-107.35 52.84,-184.75 -0.26,-25.63 -8.99,-310.51 -266.64,-484.67 l -189.93,-132.66" /><path
         id="path36"
         style="fill:#D6AF87;fill-opacity:1;fill-rule:nonzero;stroke:none"
         d="m 3848.54,2681.27 c 0,0 -695.19,-237.99 -1462.13,22.98 0,0 -20.68,-248.98 37.65,-381.3 0,0 -137.05,-531.36 380.13,-535.41 0,0 766.37,-85.41 1249.08,86.07 0,0 296.7,299.18 -204.73,807.66" /><path
         id="path38"
         style="fill:#D6AF87;fill-opacity:1;fill-rule:nonzero;stroke:none"
         d="m 1955.07,3490.87 c 0,0 -348.91,-423.19 -140.14,-570.29 0,0 109.94,-103.64 312.23,1.28 0,0 191.11,154.18 -172.09,569.01" /></g></g></svg>