<svg width="33" height="33" viewBox="0 0 33 33" fill="none" xmlns="http://www.w3.org/2000/svg">
<path d="M11.9188 16.8689C12.1208 17.7437 11.1611 18.4086 10.4146 17.9419L7.86857 16.351L4.68938 21.4386C3.85914 22.767 4.81876 24.5 6.38451 24.5H9.63375C10.0479 24.5 10.3837 24.8358 10.3837 25.25V27.75C10.3837 28.1642 10.0479 28.5 9.63375 28.5H6.39094C1.68258 28.5 -1.19042 23.3095 1.30295 19.32L4.47932 14.2333L1.93402 12.6428C1.17895 12.1711 1.37364 11.0202 2.23895 10.8204L9.12875 9.22976C9.66694 9.10551 10.2038 9.44108 10.3281 9.97914L11.9188 16.8689ZM18.0789 5.43677L20.6594 9.56651L18.1132 11.1576C17.36 11.6281 17.5507 12.7796 18.4181 12.9799L25.3079 14.5706C25.8499 14.6955 26.3838 14.3557 26.5072 13.8212L28.0978 6.93139C28.2976 6.06615 27.3485 5.38646 26.5936 5.8584L24.0507 7.44739L21.4717 3.31728C19.1267 -0.434778 13.6462 -0.443403 11.2957 3.31728L10.1731 5.11515C9.95369 5.4664 10.0606 5.92896 10.4118 6.14846L12.5317 7.47314C12.883 7.69264 13.3457 7.58583 13.5652 7.23458L14.6878 5.43815C15.4823 4.16684 17.3111 4.2084 18.0789 5.43677ZM31.4642 19.32L29.7445 16.5659C29.5251 16.2145 29.0623 16.1076 28.7109 16.3271L26.5946 17.6496C26.2433 17.8691 26.1365 18.3317 26.356 18.6831L28.0787 21.4401C28.9073 22.7657 27.9501 24.5 26.3827 24.5H20.3837V21.5012C20.3837 20.6129 19.3061 20.1648 18.6767 20.7942L13.6767 25.793C13.2861 26.1835 13.2861 26.8167 13.6767 27.2072L18.6767 32.2065C19.3018 32.8317 20.3837 32.3937 20.3837 31.4993V28.5H26.3762C31.0808 28.5 33.9596 23.3127 31.4642 19.32Z" fill="black"/>
</svg>
