<?xml version="1.0" encoding="UTF-8" standalone="no"?> <svg xmlns="http://www.w3.org/2000/svg" xmlns:xlink="http://www.w3.org/1999/xlink" viewBox="0 0 64 64"><defs><style>.cls-1{fill:url(#linear-gradient);}.cls-2{fill:url(#linear-gradient-2);}.cls-3{fill:url(#linear-gradient-3);}.cls-4{fill:url(#linear-gradient-4);}</style><linearGradient id="linear-gradient" x1="6.36" y1="31.99" x2="57.63" y2="31.99" gradientUnits="userSpaceOnUse"><stop offset="0" stop-color="#a2ce92"/><stop offset="1" stop-color="#D6AF87"/></linearGradient><linearGradient id="linear-gradient-2" x1="28.72" y1="29.3" x2="42.49" y2="29.3" xlink:href="#linear-gradient"/><linearGradient id="linear-gradient-3" x1="14.82" y1="28.31" x2="26.34" y2="28.31" xlink:href="#linear-gradient"/><linearGradient id="linear-gradient-4" x1="21.26" y1="15.78" x2="35.92" y2="15.78" xlink:href="#linear-gradient"/></defs><g id="Layer_41" data-name="Layer 41"><path class="cls-1" d="M57.08,36.11a19,19,0,0,1-5.36-11.36v0C51.44,12.45,40.14,2.16,27.87,3,8.26,3.79-1,28.8,13.33,42.12A42,42,0,0,1,17.4,60a1,1,0,0,0,.29.71,1,1,0,0,0,.71.29H41.73a1,1,0,0,0,1-.83l.83-4.79c.4-1.79,1.49-2.13,3.38-2.59,2.21-.54,5.24-1.28,4.81-6.65a.23.23,0,0,1,.15-.21A2.38,2.38,0,0,0,53,42.6a2.37,2.37,0,0,0,1.18-3.16h1.44A2,2,0,0,0,57.08,36.11Zm-3.14,1.33a1.85,1.85,0,0,0-1.55,2.82.38.38,0,0,1,0,.28.37.37,0,0,1-.08.15L48,41a1,1,0,0,0-.07,2l3.35.51a.35.35,0,0,1-.15.55,2.25,2.25,0,0,0-1.37,2.14c.74,7.21-6.68,2.27-8.16,8.77l-.7,4H19.39a42.35,42.35,0,0,0-4.56-18.21A20.31,20.31,0,0,1,9.64,18.66C14.37,4.83,32.39.51,43,10.4a20.54,20.54,0,0,1,6.74,14.4,20.57,20.57,0,0,0,5.94,12.64Z"/><path class="cls-2" d="M39,22.75a1,1,0,0,0-1.39-.41L34.37,24.2A1,1,0,0,0,34,25.57l2,3.51H34.72a1,1,0,0,0-1.45-1.36l-4.19,3.45a1,1,0,0,0,0,1.55l4.19,3.45a1,1,0,0,0,1.45-1.36c1.5-.05,4.07.27,5.37-.61l.08-.05a4.76,4.76,0,0,0,1.7-6.44ZM32.34,32.81,31.29,32l1.05-.87h4.85l1,1.7C38,32.8,32.34,32.81,32.34,32.81Zm7.79-1.36a2.44,2.44,0,0,1-.23.33l-3.66-6.34,1.5-.87,2.39,4.14A2.74,2.74,0,0,1,40.13,31.45Z"/><path class="cls-3" d="M25.34,29.4H21.29L22,28.26a1,1,0,0,0,1.89-.58c0-.09-.89-5.35-.89-5.35a1,1,0,0,0-1.34-.77l-5.08,1.9A1,1,0,0,0,17,25.39c-.7,1.33-2.27,3.39-2.15,5a.14.14,0,0,0,0,.09,4.76,4.76,0,0,0,4.73,4.69H25.3a1,1,0,0,0,1-1V30.4A1,1,0,0,0,25.34,29.4ZM17.19,29l2.71-4.7,1.28-.48.22,1.35L19,29.4H17A2.53,2.53,0,0,1,17.19,29Zm7.15,4.1H19.56A2.75,2.75,0,0,1,17,31.4h7.33Z"/><path class="cls-4" d="M34,21.66a1,1,0,0,0,1-.84s.89-5.32.9-5.35a1,1,0,0,0-1.9-.58c-.8-1.27-1.8-3.65-3.21-4.34l-.05,0-.05,0a4.75,4.75,0,0,0-6.41,1.76l-2.86,5a1,1,0,0,0,.33,1.42L25,20.49a1,1,0,0,0,1.36-.36l2-3.51L29,17.76a1,1,0,0,0-.45,1.93S33.89,21.73,34,21.66Zm-8.9-3.4-1.5-.86L26,13.26a2.75,2.75,0,0,1,2.77-1.34Zm5.4-5.34c0-.19,2.89,5,2.93,5l-.22,1.34L32,18.82l-2.42-4.2Z"/></g></svg>