<svg width="65" height="65" viewBox="0 0 65 65" fill="none" xmlns="http://www.w3.org/2000/svg">
<path d="M39 45.5C39 49.0899 36.0899 52 32.5 52C28.9101 52 26 49.0899 26 45.5C26 41.9101 28.9101 39 32.5 39C36.0899 39 39 41.9101 39 45.5Z" fill="black"/>
<path fill-rule="evenodd" clip-rule="evenodd" d="M65 32.5C65 50.4491 50.4491 65 32.5 65C14.5507 65 0 50.4491 0 32.5C0 14.5507 14.5507 0 32.5 0C50.4491 0 65 14.5507 65 32.5ZM32.5 32.5C25.3203 32.5 19.5 26.6796 19.5 19.5C19.5 12.3203 25.3203 6.5 32.5 6.5C18.1406 6.5 6.5 18.1406 6.5 32.5C6.5 46.8595 18.1406 58.5 32.5 58.5C39.6796 58.5 45.5 52.6796 45.5 45.5C45.5 38.3204 39.6796 32.5 32.5 32.5ZM39 19.5C39 23.0899 36.09 26 32.5 26C28.91 26 26 23.0899 26 19.5C26 15.9101 28.91 13 32.5 13C36.09 13 39 15.9101 39 19.5Z" fill="black"/>
</svg>
