<?xml version="1.0" encoding="utf-8"?>
<!-- Generator: Adobe Illustrator 25.2.1, SVG Export Plug-In . SVG Version: 6.00 Build 0)  -->
<svg version="1.1" width="50" height="50" id="OBJECTS" xmlns="http://www.w3.org/2000/svg" xmlns:xlink="http://www.w3.org/1999/xlink" x="0px" y="0px"
	 viewBox="0 0 500 500" style="enable-background:new 0 0 500 500;" xml:space="preserve">
<style type="text/css">
	.st0{fill:#82427b;}
	.st1{fill:#a2ce92;}
	.st2{fill:#155912;}
	.st3{fill:#29A020;}
	.st4{fill:#65A862;}
</style>
<!-- colorblue: #1841D3; -->
<g>
	<g>
		<path class="st0" d="M56.6,238.66c0,56.53,45.83,102.37,102.37,102.37c56.53,0,102.37-45.84,102.37-102.37
			c0-56.53,45.83-102.37,102.37-102.37c56.53,0,102.37,45.84,102.37,102.37c0-113.08-91.66-204.74-204.74-204.74
			C148.26,33.92,56.6,125.58,56.6,238.66z"/>
		<path class="st1" d="M466.08,238.66c0-56.53-45.83-102.37-102.37-102.37c-56.54,0-102.37,45.84-102.37,102.37
			c0,56.53-45.84,102.37-102.37,102.37c-56.54,0-102.37-45.84-102.37-102.37c0,113.08,91.66,204.74,204.74,204.74
			C374.42,443.4,466.08,351.74,466.08,238.66z"/>
		<g>
			<g>
				<path class="st2" d="M184.69,256.72c-5.51,4.31-13.14,6.66-22.59,5.45c-14.61-1.87-30.03-19.15-30.03-33.87
					c0-6.49,1.55-12.44,4.94-17.06c-6.49,4.85-9.38,12.67-9.38,21.51c0,14.73,15.42,32.01,30.03,33.87
					C169.99,268.2,179.23,263.72,184.69,256.72z"/>
				<path class="st1" d="M162.1,262.17c9.45,1.21,17.08-1.14,22.59-5.45c2.03-2.61,3.53-5.56,4.47-8.68
					c-5.05,4.93-12.63,7.84-22.32,6.6c-13.19-1.69-27.12-17.29-27.12-30.59c0-6.53,1.74-12.44,5.57-16.78
					c-3.25,0.88-5.99,2.25-8.29,3.97c-3.39,4.62-4.94,10.57-4.94,17.06C132.07,243.03,147.49,260.31,162.1,262.17z"/>
				<path class="st3" d="M155.01,206.08c-3.63,0-6.86,0.42-9.72,1.19c-3.83,4.34-5.57,10.25-5.57,16.78
					c0,13.3,13.93,28.91,27.12,30.59c9.69,1.24,17.27-1.66,22.32-6.6c0.76-2.54,1.16-5.19,1.16-7.85
					C190.33,225.46,169.74,206.08,155.01,206.08z"/>
			</g>
			<path class="st4" d="M180.12,231.38c-2.19-6.99-7.35-10.78-10.33-12.97c-3.6-2.65-7.04-5.18-11.53-4.56
				c-0.56,0.08-5.71,0.85-7.21,4.32c-3.08,7.16,12.31,18.86,14.41,20.42c4.25,3.16,10.63,7.92,13.93,5.77
				C182.61,242.26,181.18,234.75,180.12,231.38z"/>
		</g>
	</g>
	<path class="st0" d="M347.03,268.7c-0.22,0.19-0.44,0.39-0.66,0.57c-0.77,0.68-1.53,1.29-2.29,1.84c-0.74,0.57-1.44,1.12-2.15,1.57
		c-0.7,0.46-1.36,0.9-1.96,1.3c-0.64,0.36-1.22,0.7-1.75,1c-1.03,0.63-1.95,0.97-2.53,1.27c-0.59,0.28-0.91,0.43-0.91,0.43
		l-1.27-3.2c0,0,0.29-0.12,0.84-0.35c0.54-0.25,1.37-0.51,2.35-1.05c0.49-0.26,1.04-0.54,1.64-0.85c0.58-0.35,1.21-0.73,1.88-1.13
		c0.68-0.39,1.36-0.89,2.08-1.39c0.74-0.49,1.48-1.05,2.24-1.67c0.77-0.59,1.57-1.23,2.36-1.93c0.81-0.68,1.62-1.41,2.43-2.2
		c0.83-0.76,1.66-1.57,2.48-2.42c0.84-0.84,1.67-1.72,2.5-2.64c3.33-3.65,6.64-7.78,9.74-12.08c6.2-8.61,11.61-17.79,15.39-24.82
		c3.79-7.03,5.99-11.89,5.99-11.89s-2.34,4.79-6.35,11.7c-3.99,6.91-9.67,15.93-16.14,24.34c-3.23,4.2-6.67,8.23-10.11,11.77
		c-0.86,0.89-1.71,1.75-2.57,2.56c-0.85,0.83-1.7,1.62-2.55,2.35c-0.83,0.76-1.67,1.46-2.5,2.11c-0.67,0.57-1.35,1.08-2.01,1.57
		c-19.07-29.88,12.71-41.59,31.12-51.73c8.55-4.7,13.04-8.91,13.04-8.91S394.71,281.54,347.03,268.7z"/>
</g>
</svg>
